<svg width="26" height="32" viewBox="0 0 26 32" fill="none" xmlns="http://www.w3.org/2000/svg">
<path d="M8.31705 12.0378C8.31705 10.7082 9.39495 9.63025 10.7246 9.63025H21.6681C22.9978 9.63025 24.0757 10.7082 24.0757 12.0378C24.0757 13.3675 22.9978 14.4454 21.6681 14.4454H10.7246C9.39495 14.4454 8.31705 13.3675 8.31705 12.0378Z" fill="#F2FF5A"/>
<path d="M8.31705 29.1097C8.31705 27.78 9.39495 26.7021 10.7246 26.7021H19.2605C20.5902 26.7021 21.6681 27.78 21.6681 29.1097C21.6681 30.4393 20.5902 31.5172 19.2605 31.5172H10.7246C9.39495 31.5172 8.31705 30.4393 8.31705 29.1097Z" fill="#4590FF"/>
<path d="M8.31705 23.4191C8.31705 22.0894 9.39495 21.0115 10.7246 21.0115H21.6681C22.9978 21.0115 24.0757 22.0894 24.0757 23.4191C24.0757 24.7487 22.9978 25.8266 21.6681 25.8266H10.7246C9.39495 25.8266 8.31705 24.7487 8.31705 23.4191Z" fill="#FE4E4E"/>
<path d="M0 3.61135C0 1.61685 1.61686 0 3.61135 0C5.60584 0 7.2227 1.61686 7.2227 3.61135V15.7586V27.9059C7.2227 29.9004 5.60584 31.5172 3.61135 31.5172C1.61686 31.5172 0 29.9004 0 27.9059V3.61135Z" fill="white"/>
<path d="M8.31705 17.7284C8.31705 16.3988 9.39495 15.3209 10.7246 15.3209H22.9813C24.311 15.3209 25.3889 16.3988 25.3889 17.7284C25.3889 19.0581 24.311 20.136 22.9813 20.136H10.7246C9.39495 20.136 8.31705 19.0581 8.31705 17.7284Z" fill="#61D65F"/>
</svg>
